# xmcd
#
# Track frame offsets:
# 150
# 10196
# 21546
# 33738
# 42868
# 53959
# 65505
# 76389
# 89479
# 98722
#
# Disc length: 1498 seconds
#
#
# Revision: 0
# Processed by: cddbd v1.4PL0 Copyright (c) Steve Scherf et al.
# Submitted via: FreeRIP 2.00 
#
DISCID=8005d80a
DTITLE=George Jones - Walk Through This World With Me
DYEAR=1967
DGENRE=Country
TTITLE0=Walk Through This World With Me
TTITLE1=The Shoe Goes On The Other Foot Tonight
TTITLE2=Sweet Thang
TTITLE3=Am I That Easy To Forget
TTITLE4=Apartment #9
TTITLE5=There Goes My Everything
TTITLE6=Life Turned Her That Way
TTITLE7=Almost Persuaded
TTITLE8=Lonely Street
TTITLE9=That Heart Belongs To Me
EXTD=Musicor MS 3119
EXTT0=
EXTT1=
EXTT2=
EXTT3=
EXTT4=
EXTT5=
EXTT6=
EXTT7=
EXTT8=
EXTT9=
PLAYORDER=
